<svg xmlns="http://www.w3.org/2000/svg" width="120.749" height="107.735" viewBox="0 0 120.749 107.735">
  <g id="그룹_9" data-name="그룹 9" transform="translate(-1252.625 -826.065)">
    <path id="Icon_awesome-school" data-name="Icon awesome-school" d="M6,45.762v55.568A3.268,3.268,0,0,0,9.269,104.6H25.612V39.225H12.537A6.538,6.538,0,0,0,6,45.762Zm95.688-22.873L69,1.1a6.542,6.542,0,0,0-7.252,0L29.061,22.889a6.538,6.538,0,0,0-2.911,5.438V104.6H52.3V75.181a3.268,3.268,0,0,1,3.269-3.269H75.181a3.268,3.268,0,0,1,3.269,3.269V104.6H104.6c0-34.207-.208-53.888-.6-65.565-.489-14.514-1.284-15.462-2.31-16.146Zm15.524,16.335H104.137V104.6H120.48a3.268,3.268,0,0,0,3.269-3.269V45.762A6.538,6.538,0,0,0,117.212,39.225Z" transform="translate(1248.125 827.7)" fill="none" stroke="#fff" stroke-width="3"/>
    <g id="타원_50" data-name="타원 50" transform="translate(1295 849.699)" fill="none" stroke="#fff" stroke-width="3">
      <circle cx="18.5" cy="18.5" r="18.5" stroke="none"/>
      <circle cx="18.5" cy="18.5" r="17" fill="none"/>
    </g>
    <line id="선_2" data-name="선 2" y2="13" transform="translate(1312.5 860.5)" fill="none" stroke="#fff" stroke-width="3"/>
    <line id="선_3" data-name="선 3" x1="10" transform="translate(1312.5 871.5)" fill="none" stroke="#fff" stroke-width="3"/>
  </g>
</svg>
