<svg xmlns="http://www.w3.org/2000/svg" width="23.152" height="23.152" viewBox="0 0 23.152 23.152">
  <path id="Icon_open-magnifying-glass" data-name="Icon open-magnifying-glass" d="M10.038-.016a10.038,10.038,0,0,0,0,20.076A9.922,9.922,0,0,0,14.8,18.884a2.868,2.868,0,0,0,.373.373l2.868,2.868A2.925,2.925,0,1,0,22.17,18L19.3,15.127a2.868,2.868,0,0,0-.459-.373,9.9,9.9,0,0,0,1.262-4.761A10.049,10.049,0,0,0,10.067-.045Zm0,2.868a7.136,7.136,0,0,1,7.17,7.17,7.192,7.192,0,0,1-1.893,4.933l-.086.086a2.868,2.868,0,0,0-.373.373,7.177,7.177,0,0,1-4.847,1.807,7.17,7.17,0,0,1,0-14.34Z" transform="translate(0 0.045)" fill="#6a6a6a"/>
</svg>
