<svg xmlns="http://www.w3.org/2000/svg" width="13.406" height="12.954" viewBox="0 0 13.406 12.954">
  <g id="그룹_90" data-name="그룹 90" transform="translate(-76.777 -1371.479)">
    <g id="그룹_16" data-name="그룹 16">
      <path id="Icon_ionic-ios-arrow-back" data-name="Icon ionic-ios-arrow-back" d="M13.483,12.669l4.9-4.9a.926.926,0,0,0-1.311-1.307L11.52,12.014a.924.924,0,0,0-.027,1.276l5.577,5.588a.926.926,0,0,0,1.311-1.307Z" transform="translate(71.526 1365.285)" fill="#9b9b9b"/>
      <path id="Icon_ionic-ios-arrow-back-2" data-name="Icon ionic-ios-arrow-back" d="M13.483,12.669l4.9-4.9a.926.926,0,0,0-1.311-1.307L11.52,12.014a.924.924,0,0,0-.027,1.276l5.577,5.588a.926.926,0,0,0,1.311-1.307Z" transform="translate(65.526 1365.285)" fill="#9b9b9b"/>
    </g>
  </g>
</svg>
