<svg xmlns="http://www.w3.org/2000/svg" width="122.616" height="122.616" viewBox="0 0 122.616 122.616">
  <path id="Icon_awesome-pencil-alt" data-name="Icon awesome-pencil-alt" d="M116.307,33.183,105.538,43.952a2.806,2.806,0,0,1-3.971,0l-25.93-25.93a2.806,2.806,0,0,1,0-3.971L86.406,3.282a11.237,11.237,0,0,1,15.862,0l14.04,14.04A11.2,11.2,0,0,1,116.307,33.183ZM66.386,23.3,5.042,84.645.09,113.028a5.614,5.614,0,0,0,6.494,6.494l28.383-4.976,36.1-36.1L96.311,53.2a2.806,2.806,0,0,0,0-3.971L70.381,23.3a2.834,2.834,0,0,0-3.995,0Zm-37.4,56.088a3.257,3.257,0,0,1,0-4.625L64.961,38.789a3.271,3.271,0,0,1,4.625,4.625L33.612,79.389a3.257,3.257,0,0,1-4.625,0ZM20.553,99.035H31.766v8.48L16.7,110.155,9.434,102.89l2.64-15.067h8.48Z" transform="translate(1.515 1.495)" fill="none" stroke="#fff" stroke-width="3"/>
</svg>
