<svg xmlns="http://www.w3.org/2000/svg" width="13.406" height="12.954" viewBox="0 0 13.406 12.954">
  <g id="그룹_88" data-name="그룹 88" transform="translate(-263.777 -1371.479)">
    <g id="그룹_18" data-name="그룹 18">
      <path id="Icon_ionic-ios-arrow-back" data-name="Icon ionic-ios-arrow-back" d="M16.424,12.669l-4.9-4.9a.926.926,0,0,1,1.311-1.307l5.553,5.549a.924.924,0,0,1,.027,1.276l-5.577,5.588a.926.926,0,0,1-1.311-1.307Z" transform="translate(252.526 1365.285)" fill="#9b9b9b"/>
      <path id="Icon_ionic-ios-arrow-back-2" data-name="Icon ionic-ios-arrow-back" d="M16.424,12.669l-4.9-4.9a.926.926,0,0,1,1.311-1.307l5.553,5.549a.924.924,0,0,1,.027,1.276l-5.577,5.588a.926.926,0,0,1-1.311-1.307Z" transform="translate(258.526 1365.285)" fill="#9b9b9b"/>
    </g>
  </g>
</svg>
